<svg id="svg" version="1.1" xmlns="http://www.w3.org/2000/svg" xmlns:xlink="http://www.w3.org/1999/xlink" width="400" height="400" viewBox="0, 0, 400,400"><g id="svgg"><path id="path0" d="M150.220 70.500 C 147.606 73.290,124.550 96.976,113.330 108.399 C 109.331 112.469,105.673 116.250,105.202 116.800 C 104.731 117.350,101.073 121.132,97.073 125.204 C 88.451 133.981,78.496 144.186,60.800 162.389 C 53.650 169.743,44.359 179.280,40.153 183.580 C 30.820 193.123,28.013 196.108,28.006 196.500 C 28.003 196.665,45.955 196.803,67.900 196.807 L 107.800 196.814 115.600 188.869 C 119.890 184.499,130.238 173.921,138.596 165.362 C 146.954 156.803,158.204 145.301,163.596 139.802 C 172.688 130.530,191.943 110.879,192.400 110.407 C 193.952 108.801,194.932 109.935,173.373 88.373 C 162.169 77.168,152.904 68.000,152.783 68.000 C 152.661 68.000,151.508 69.125,150.220 70.500 M226.446 89.032 L 205.559 109.800 225.373 129.592 L 245.187 149.384 265.794 128.799 C 277.127 117.477,286.392 108.120,286.383 108.007 C 286.374 107.893,277.584 98.905,266.849 88.032 L 247.332 68.265 226.446 89.032 M272.600 133.310 L 251.800 153.878 273.200 175.124 L 294.600 196.370 334.968 196.385 L 375.335 196.400 372.377 193.300 C 370.750 191.595,364.457 185.160,358.392 179.000 C 352.327 172.840,342.415 162.760,336.366 156.600 C 330.317 150.440,320.673 140.630,314.935 134.800 C 309.197 128.970,302.005 121.622,298.951 118.471 L 293.400 112.743 272.600 133.310 M195.392 117.700 C 193.443 119.735,185.718 127.618,178.224 135.217 C 170.731 142.816,158.762 154.966,151.627 162.217 C 144.491 169.468,134.006 180.093,128.327 185.828 C 122.647 191.564,118.000 196.379,118.000 196.528 C 118.000 196.678,136.247 196.800,158.549 196.800 L 199.098 196.800 211.447 184.100 C 218.239 177.115,226.345 168.790,229.462 165.600 C 232.578 162.410,236.228 158.634,237.572 157.210 L 240.017 154.620 219.710 134.310 C 208.541 123.139,199.298 114.000,199.169 114.000 C 199.041 114.000,197.341 115.665,195.392 117.700 M243.374 161.700 C 239.740 165.571,219.518 186.899,218.609 187.820 C 218.164 188.271,216.093 190.431,214.006 192.620 L 210.213 196.600 213.006 196.735 C 214.543 196.809,230.987 196.742,249.549 196.586 L 283.299 196.302 264.751 177.751 C 254.550 167.548,246.095 159.200,245.963 159.200 C 245.830 159.200,244.665 160.325,243.374 161.700 " stroke="none" fill="#057b22" fill-rule="evenodd"></path><path id="path1" d="M245.381 70.100 L 243.800 71.800 245.500 70.219 C 246.435 69.349,247.200 68.584,247.200 68.519 C 247.200 68.216,246.852 68.519,245.381 70.100 M146.778 73.900 L 145.400 75.400 146.900 74.022 C 147.725 73.263,148.400 72.588,148.400 72.522 C 148.400 72.216,148.062 72.504,146.778 73.900 M174.981 128.100 L 173.400 129.800 175.100 128.219 C 176.681 126.748,176.984 126.400,176.681 126.400 C 176.616 126.400,175.851 127.165,174.981 128.100 M156.778 146.700 L 155.400 148.200 156.900 146.822 C 157.725 146.063,158.400 145.388,158.400 145.322 C 158.400 145.016,158.062 145.304,156.778 146.700 M72.575 150.100 L 71.400 151.400 72.700 150.225 C 73.912 149.130,74.184 148.800,73.875 148.800 C 73.806 148.800,73.221 149.385,72.575 150.100 M28.806 194.994 C 28.063 195.761,27.532 196.450,27.627 196.525 C 27.722 196.600,28.406 195.973,29.146 195.131 C 30.829 193.218,30.612 193.131,28.806 194.994 M28.822 205.461 C 31.374 208.165,50.109 227.288,61.583 238.901 C 67.843 245.237,73.076 250.599,73.210 250.817 C 73.345 251.035,78.215 256.025,84.033 261.907 C 92.682 270.651,122.272 300.811,132.200 311.002 C 141.515 320.564,152.520 331.600,152.740 331.600 C 152.885 331.600,161.819 322.783,172.593 312.007 L 192.183 292.414 190.192 290.358 C 189.096 289.227,187.840 287.908,187.400 287.425 C 186.960 286.942,184.530 284.396,182.000 281.766 C 176.633 276.188,171.442 270.752,161.200 259.984 C 157.130 255.705,151.808 250.133,149.374 247.602 C 146.940 245.071,143.340 241.308,141.374 239.240 C 139.408 237.172,137.260 234.913,136.600 234.221 C 135.940 233.528,131.894 229.280,127.610 224.781 C 123.325 220.281,117.912 214.620,115.579 212.200 C 113.247 209.780,110.558 206.945,109.604 205.900 L 107.870 204.000 67.656 204.000 L 27.443 204.000 28.822 205.461 M119.458 205.109 C 120.086 205.719,125.190 210.984,130.799 216.809 C 136.408 222.634,143.518 230.005,146.599 233.189 C 149.680 236.373,154.814 241.683,158.009 244.989 C 161.204 248.295,166.694 253.971,170.209 257.603 C 173.724 261.235,179.210 266.914,182.400 270.224 C 195.108 283.409,198.910 287.230,199.212 287.117 C 199.532 286.999,206.657 280.050,227.921 259.116 L 239.642 247.577 234.736 242.288 C 232.037 239.380,229.713 236.910,229.571 236.800 C 229.428 236.690,226.812 233.885,223.756 230.567 C 220.700 227.249,213.892 219.914,208.627 214.267 L 199.053 204.000 158.684 204.000 L 118.315 204.000 119.458 205.109 M213.231 207.506 C 218.422 212.937,224.902 219.742,228.006 223.023 C 236.722 232.233,239.655 235.317,242.766 238.542 L 246.182 242.083 261.500 226.542 C 269.925 217.994,278.295 209.515,280.100 207.700 L 283.382 204.400 246.822 204.400 L 210.261 204.400 213.231 207.506 M294.572 211.101 C 289.900 212.777,287.200 216.557,287.200 221.424 C 287.200 226.310,289.149 228.187,296.899 230.766 C 301.107 232.167,302.384 234.533,300.010 236.531 C 297.791 238.397,295.823 238.305,291.485 236.131 C 289.184 234.978,289.106 235.016,287.564 238.071 C 286.049 241.072,286.043 241.059,289.857 243.000 C 301.011 248.678,313.623 239.430,308.566 229.281 C 307.272 226.685,306.273 225.974,301.476 224.238 C 296.675 222.500,296.117 222.199,295.791 221.172 C 294.729 217.824,298.931 216.095,302.940 218.230 C 304.004 218.796,304.931 219.201,305.000 219.130 C 305.579 218.536,307.916 213.367,307.690 213.180 C 305.032 210.976,298.018 209.865,294.572 211.101 M364.000 211.151 C 349.058 216.078,347.150 235.314,360.877 242.636 L 363.800 244.195 368.600 244.197 C 371.773 244.199,373.841 244.014,374.700 243.651 L 376.000 243.103 376.000 238.548 L 376.000 233.993 373.900 235.155 C 366.123 239.456,358.086 233.188,360.543 224.737 C 362.286 218.740,371.475 216.097,375.149 220.537 C 376.193 221.798,376.400 221.182,376.400 216.809 C 376.400 212.509,376.378 212.404,375.348 211.729 C 374.175 210.960,365.863 210.537,364.000 211.151 M314.400 227.414 L 314.400 243.628 318.500 243.514 L 322.600 243.400 322.800 233.625 L 323.000 223.851 325.400 227.025 C 326.720 228.771,330.123 233.215,332.961 236.900 L 338.122 243.600 342.461 243.600 L 346.800 243.600 346.800 227.400 L 346.800 211.200 342.600 211.200 L 338.400 211.200 338.400 220.976 C 338.400 226.353,338.265 230.834,338.100 230.933 C 337.829 231.096,335.757 228.461,325.856 215.360 L 322.712 211.200 318.556 211.200 L 314.400 211.200 314.400 227.414 " stroke="none" fill="#2e7eb7" fill-rule="evenodd"></path><path id="path2" d="M0.000 200.000 L 0.000 400.000 200.000 400.000 L 400.000 400.000 400.000 200.000 L 400.000 0.000 200.000 0.000 L 0.000 0.000 0.000 200.000 M173.689 88.300 L 194.375 109.000 186.488 117.011 C 182.149 121.417,174.370 129.344,169.200 134.626 C 164.030 139.909,155.120 149.007,149.400 154.844 C 143.680 160.682,132.250 172.357,124.000 180.790 C 115.750 189.223,108.762 196.365,108.471 196.662 C 107.806 197.339,27.200 197.477,27.200 196.800 C 27.200 196.580,27.515 196.075,27.900 195.678 C 29.710 193.811,54.689 168.136,61.800 160.834 C 66.200 156.315,73.162 149.194,77.271 145.009 C 81.379 140.824,85.127 136.950,85.598 136.400 C 86.069 135.850,89.727 132.068,93.727 127.996 C 105.699 115.809,138.726 81.911,147.407 72.900 C 150.216 69.985,152.623 67.600,152.758 67.600 C 152.893 67.600,162.312 76.915,173.689 88.300 M267.059 87.796 C 277.805 98.684,286.647 107.741,286.707 107.922 C 286.818 108.253,245.888 149.292,245.216 149.524 C 245.019 149.592,235.911 140.706,224.976 129.778 L 205.094 109.908 226.046 88.954 C 237.569 77.429,247.115 68.000,247.259 68.000 C 247.403 68.000,256.313 76.908,267.059 87.796 M318.560 138.001 C 328.523 148.118,335.592 155.306,363.308 183.508 C 370.068 190.387,375.600 196.192,375.600 196.408 C 375.600 196.662,361.310 196.798,335.100 196.794 L 294.600 196.789 273.098 175.494 C 261.272 163.783,251.597 154.075,251.598 153.922 C 251.600 153.641,286.598 118.753,291.000 114.645 L 293.400 112.405 300.760 119.902 C 304.808 124.026,312.818 132.170,318.560 138.001 M220.000 134.000 C 231.220 145.219,240.400 154.489,240.400 154.600 C 240.400 154.710,240.085 155.126,239.700 155.525 C 239.315 155.924,233.752 161.639,227.339 168.225 C 220.925 174.811,215.091 180.830,214.374 181.600 C 213.658 182.370,209.934 186.195,206.099 190.100 L 199.126 197.200 158.334 197.200 C 123.459 197.200,117.560 197.118,117.671 196.637 C 117.742 196.327,126.980 186.748,138.200 175.350 C 149.420 163.951,164.809 148.320,172.397 140.613 C 179.986 132.906,189.069 123.675,192.582 120.100 C 196.094 116.525,199.110 113.600,199.284 113.600 C 199.457 113.600,208.779 122.780,220.000 134.000 M283.584 196.700 C 283.597 197.097,275.938 197.200,246.580 197.200 C 215.042 197.200,209.608 197.117,209.880 196.643 C 210.163 196.150,233.435 171.507,245.371 159.062 C 246.139 158.261,246.234 158.350,264.855 177.229 C 275.147 187.663,283.575 196.425,283.584 196.700 M122.284 218.700 C 130.213 227.005,137.294 234.430,138.019 235.200 C 138.745 235.970,142.781 240.200,146.989 244.600 C 163.727 262.102,180.462 279.636,184.594 284.000 C 186.990 286.530,189.051 288.694,189.175 288.810 C 189.299 288.925,190.115 289.784,190.990 290.718 L 192.579 292.418 172.791 312.209 C 161.908 323.094,152.830 332.000,152.619 332.000 C 152.408 332.000,150.517 330.217,148.418 328.038 C 146.318 325.859,140.550 319.956,135.600 314.921 C 130.650 309.885,118.234 297.223,108.010 286.782 C 97.785 276.342,84.571 262.905,78.646 256.922 C 72.722 250.938,67.754 245.850,67.608 245.614 C 67.462 245.377,62.676 240.459,56.971 234.685 C 31.396 208.794,27.155 204.396,27.394 204.010 C 27.564 203.734,40.770 203.600,67.758 203.600 L 107.868 203.600 122.284 218.700 M207.463 212.500 C 211.836 217.175,217.833 223.610,220.790 226.800 C 223.748 229.990,227.273 233.770,228.625 235.200 C 233.066 239.898,239.798 247.269,239.904 247.549 C 239.961 247.700,237.351 250.436,234.104 253.628 C 207.065 280.212,199.434 287.600,199.016 287.600 C 198.750 287.600,197.300 286.295,195.794 284.700 C 194.288 283.105,188.360 276.940,182.620 271.000 C 176.880 265.060,166.799 254.620,160.218 247.800 C 153.636 240.980,145.810 232.875,142.826 229.789 C 139.841 226.703,134.975 221.663,132.010 218.589 C 129.046 215.515,124.646 210.975,122.232 208.500 L 117.844 204.000 158.678 204.000 L 199.512 204.000 207.463 212.500 M283.533 204.381 C 283.153 205.470,246.273 242.366,245.833 242.098 C 245.563 241.934,241.770 238.020,237.402 233.400 C 226.857 222.244,215.260 210.039,212.032 206.700 L 209.421 204.000 246.544 204.000 C 269.915 204.000,283.617 204.141,283.533 204.381 M305.100 211.568 C 308.960 213.128,308.831 212.740,306.765 216.569 C 304.936 219.960,305.045 219.888,303.406 218.808 C 301.201 217.354,297.272 217.419,296.314 218.925 C 295.109 220.820,296.695 222.336,301.476 223.859 C 308.548 226.111,311.277 230.602,309.432 236.950 C 307.155 244.781,297.735 247.380,288.546 242.712 C 285.564 241.197,285.566 241.207,287.461 237.589 C 289.157 234.351,288.919 234.428,292.103 236.086 C 295.463 237.834,298.437 237.902,299.847 236.263 C 301.431 234.422,300.744 232.386,298.288 231.640 C 295.357 230.749,291.321 229.098,290.179 228.322 C 284.844 224.698,286.012 215.184,292.200 211.863 C 296.548 209.530,299.869 209.454,305.100 211.568 M374.500 211.088 L 376.400 211.758 376.400 216.954 L 376.400 222.150 375.300 221.121 C 368.149 214.430,357.080 222.607,361.383 231.401 C 363.926 236.600,371.737 237.998,375.149 233.865 C 376.238 232.546,376.423 233.253,376.312 238.299 L 376.200 243.398 374.600 243.947 C 361.899 248.310,348.799 236.958,351.563 223.985 C 353.685 214.025,364.916 207.710,374.500 211.088 M327.309 216.700 C 329.592 219.725,332.886 224.069,334.630 226.353 L 337.800 230.506 337.907 220.853 L 338.014 211.200 342.407 211.200 L 346.800 211.200 346.800 227.600 L 346.800 244.000 342.436 244.000 L 338.072 244.000 335.736 241.046 C 334.451 239.421,332.140 236.430,330.600 234.400 C 329.060 232.370,326.720 229.343,325.400 227.673 L 323.000 224.638 322.893 234.319 L 322.786 244.000 318.393 244.000 L 314.000 244.000 314.000 227.600 L 314.000 211.200 318.580 211.200 L 323.159 211.200 327.309 216.700 " stroke="none" fill="#fbfbfb" fill-rule="evenodd"></path><path id="path3" d="M149.391 70.900 L 146.200 74.200 149.588 71.000 C 151.452 69.240,153.057 67.755,153.155 67.700 C 153.253 67.645,153.164 67.600,152.957 67.600 C 152.750 67.600,151.145 69.085,149.391 70.900 M231.998 83.100 L 217.000 98.200 232.184 83.200 C 240.536 74.950,247.451 68.155,247.551 68.100 C 247.651 68.045,247.567 68.000,247.365 68.000 C 247.162 68.000,240.247 74.795,231.998 83.100 M258.400 79.400 C 263.126 84.130,267.083 88.000,267.193 88.000 C 267.303 88.000,263.526 84.130,258.800 79.400 C 254.074 74.670,250.117 70.800,250.007 70.800 C 249.897 70.800,253.674 74.670,258.400 79.400 M136.993 83.700 L 132.600 88.200 137.100 83.807 C 141.280 79.726,141.782 79.200,141.493 79.200 C 141.434 79.200,139.409 81.225,136.993 83.700 M120.993 100.100 L 116.600 104.600 121.100 100.207 C 125.280 96.126,125.782 95.600,125.493 95.600 C 125.434 95.600,123.409 97.625,120.993 100.100 M215.375 99.700 L 214.200 101.000 215.500 99.825 C 216.215 99.179,216.800 98.594,216.800 98.525 C 216.800 98.216,216.470 98.488,215.375 99.700 M284.820 106.221 C 285.799 107.333,286.681 108.181,286.781 108.107 C 286.880 108.033,286.079 107.123,285.001 106.086 L 283.040 104.200 284.820 106.221 M193.527 108.487 C 193.910 108.870,192.879 110.132,188.707 114.387 L 183.400 119.800 188.884 114.422 C 194.017 109.387,194.965 108.000,193.271 108.000 C 193.144 108.000,193.259 108.219,193.527 108.487 M105.994 115.500 L 100.600 121.000 106.100 115.606 C 111.209 110.594,111.781 110.000,111.494 110.000 C 111.436 110.000,108.961 112.475,105.994 115.500 M275.541 129.900 C 265.864 139.525,257.776 147.461,257.568 147.535 C 257.361 147.609,256.989 148.059,256.741 148.535 C 256.494 149.011,256.451 149.248,256.646 149.061 C 256.841 148.875,265.167 140.619,275.148 130.715 L 293.297 112.707 298.948 118.254 L 304.600 123.800 299.005 118.100 C 295.928 114.965,293.349 112.400,293.274 112.400 C 293.199 112.400,285.219 120.275,275.541 129.900 M182.051 130.800 C 172.747 140.260,165.222 148.000,165.329 148.000 C 165.436 148.000,173.154 140.260,182.480 130.800 C 191.806 121.340,199.331 113.600,199.202 113.600 C 199.073 113.600,191.355 121.340,182.051 130.800 M200.400 114.702 C 200.400 114.922,200.670 115.326,201.000 115.600 C 201.335 115.878,201.600 115.921,201.600 115.698 C 201.600 115.478,201.330 115.074,201.000 114.800 C 200.665 114.522,200.400 114.479,200.400 114.702 M205.200 119.800 C 205.474 120.130,205.878 120.400,206.098 120.400 C 206.321 120.400,206.278 120.135,206.000 119.800 C 205.726 119.470,205.322 119.200,205.102 119.200 C 204.879 119.200,204.922 119.465,205.200 119.800 M207.600 122.200 C 207.874 122.530,208.278 122.800,208.498 122.800 C 208.721 122.800,208.678 122.535,208.400 122.200 C 208.126 121.870,207.722 121.600,207.502 121.600 C 207.279 121.600,207.322 121.865,207.600 122.200 M209.600 123.889 C 209.600 124.392,210.743 125.390,211.012 125.121 C 211.118 125.015,210.844 124.602,210.402 124.202 C 209.961 123.803,209.600 123.662,209.600 123.889 M304.800 124.302 C 304.800 124.522,305.070 124.926,305.400 125.200 C 305.735 125.478,306.000 125.521,306.000 125.298 C 306.000 125.078,305.730 124.674,305.400 124.400 C 305.065 124.122,304.800 124.079,304.800 124.302 M172.600 130.800 C 169.306 134.100,166.700 136.800,166.810 136.800 C 166.920 136.800,169.706 134.100,173.000 130.800 C 176.294 127.500,178.900 124.800,178.790 124.800 C 178.680 124.800,175.894 127.500,172.600 130.800 M256.986 137.602 C 250.379 144.201,245.070 149.600,245.189 149.600 C 245.308 149.600,250.803 144.200,257.400 137.600 C 263.997 131.000,269.306 125.601,269.197 125.602 C 269.089 125.603,263.594 131.003,256.986 137.602 M90.794 131.100 L 85.800 136.200 90.900 131.206 C 95.637 126.567,96.181 126.000,95.894 126.000 C 95.836 126.000,93.541 128.295,90.794 131.100 M316.029 135.882 C 321.216 141.117,330.828 150.800,337.390 157.400 C 343.952 164.000,339.978 159.839,328.560 148.154 C 317.142 136.469,307.530 126.786,307.200 126.637 C 306.870 126.487,310.843 130.648,316.029 135.882 M214.400 128.702 C 214.400 128.922,214.670 129.326,215.000 129.600 C 215.335 129.878,215.600 129.921,215.600 129.698 C 215.600 129.478,215.330 129.074,215.000 128.800 C 214.665 128.522,214.400 128.479,214.400 128.702 M216.800 131.400 C 217.074 131.730,217.478 132.000,217.698 132.000 C 217.921 132.000,217.878 131.735,217.600 131.400 C 217.326 131.070,216.922 130.800,216.702 130.800 C 216.479 130.800,216.522 131.065,216.800 131.400 M219.400 134.000 C 219.798 134.440,220.192 134.800,220.276 134.800 C 220.360 134.800,220.235 134.440,220.000 134.000 C 219.765 133.560,219.370 133.200,219.124 133.200 C 218.878 133.200,219.002 133.560,219.400 134.000 M221.200 135.489 C 221.200 135.992,222.343 136.990,222.612 136.721 C 222.718 136.615,222.444 136.202,222.002 135.802 C 221.561 135.403,221.200 135.262,221.200 135.489 M223.762 138.342 C 224.609 139.295,224.800 139.382,224.800 138.814 C 224.800 138.602,224.395 138.216,223.900 137.956 C 223.005 137.486,223.004 137.488,223.762 138.342 M226.000 140.302 C 226.000 140.522,226.270 140.926,226.600 141.200 C 226.935 141.478,227.200 141.521,227.200 141.298 C 227.200 141.078,226.930 140.674,226.600 140.400 C 226.265 140.122,226.000 140.079,226.000 140.302 M76.794 145.500 L 71.800 150.600 76.900 145.606 C 81.637 140.967,82.181 140.400,81.894 140.400 C 81.836 140.400,79.541 142.695,76.794 145.500 M228.400 143.000 C 228.674 143.330,229.078 143.600,229.298 143.600 C 229.521 143.600,229.478 143.335,229.200 143.000 C 228.926 142.670,228.522 142.400,228.302 142.400 C 228.079 142.400,228.122 142.665,228.400 143.000 M154.195 149.700 L 148.600 155.400 154.300 149.805 C 159.595 144.608,160.181 144.000,159.895 144.000 C 159.837 144.000,157.272 146.565,154.195 149.700 M232.800 147.089 C 232.800 147.592,233.943 148.590,234.212 148.321 C 234.318 148.215,234.044 147.802,233.602 147.402 C 233.161 147.003,232.800 146.862,232.800 147.089 M235.200 149.502 C 235.200 149.722,235.470 150.126,235.800 150.400 C 236.135 150.678,236.400 150.721,236.400 150.498 C 236.400 150.278,236.130 149.874,235.800 149.600 C 235.465 149.322,235.200 149.279,235.200 149.502 M254.562 150.458 C 253.804 151.312,253.805 151.314,254.700 150.844 C 255.195 150.584,255.600 150.198,255.600 149.986 C 255.600 149.418,255.409 149.505,254.562 150.458 M160.258 152.910 C 159.436 153.839,154.947 158.470,150.283 163.200 C 142.493 171.100,142.632 170.979,151.984 161.716 C 157.584 156.170,162.073 151.539,161.959 151.426 C 161.845 151.312,161.080 151.980,160.258 152.910 M237.600 151.902 C 237.600 152.122,237.870 152.526,238.200 152.800 C 238.535 153.078,238.800 153.121,238.800 152.898 C 238.800 152.678,238.530 152.274,238.200 152.000 C 237.865 151.722,237.600 151.679,237.600 151.902 M252.262 152.731 C 251.382 153.703,251.426 154.129,252.500 155.038 C 253.399 155.799,253.399 155.799,252.700 154.969 C 251.778 153.873,251.817 153.425,252.900 152.670 C 253.395 152.324,253.603 152.033,253.362 152.021 C 253.121 152.009,252.626 152.329,252.262 152.731 M63.000 159.600 C 60.367 162.240,58.303 164.400,58.413 164.400 C 58.523 164.400,60.767 162.240,63.400 159.600 C 66.033 156.960,68.097 154.800,67.987 154.800 C 67.877 154.800,65.633 156.960,63.000 159.600 M233.395 161.618 C 230.318 164.708,228.070 167.109,228.400 166.953 C 229.023 166.658,239.511 156.000,239.178 156.000 C 239.074 156.000,236.472 158.528,233.395 161.618 M255.600 158.200 C 256.795 159.410,257.863 160.400,257.973 160.400 C 258.083 160.400,257.195 159.410,256.000 158.200 C 254.805 156.990,253.737 156.000,253.627 156.000 C 253.517 156.000,254.405 156.990,255.600 158.200 M245.371 159.062 C 233.435 171.507,210.163 196.150,209.880 196.643 C 209.608 197.117,215.042 197.200,246.580 197.200 C 275.938 197.200,283.597 197.097,283.584 196.700 C 283.575 196.425,275.147 187.663,264.855 177.229 C 246.234 158.350,246.139 158.261,245.371 159.062 M264.751 177.751 L 283.299 196.302 249.549 196.586 C 230.987 196.742,214.543 196.809,213.006 196.735 L 210.213 196.600 214.006 192.620 C 216.093 190.431,218.164 188.271,218.609 187.820 C 219.518 186.899,239.740 165.571,243.374 161.700 C 244.665 160.325,245.830 159.200,245.963 159.200 C 246.095 159.200,254.550 167.548,264.751 177.751 M134.393 169.900 L 129.800 174.600 134.500 170.007 C 138.866 165.740,139.382 165.200,139.093 165.200 C 139.035 165.200,136.920 167.315,134.393 169.900 M226.919 168.090 C 226.012 169.262,225.956 169.737,226.823 168.911 C 227.336 168.422,227.656 167.923,227.535 167.801 C 227.413 167.680,227.136 167.810,226.919 168.090 M265.970 168.547 C 267.052 169.723,267.266 169.838,266.980 169.091 C 266.872 168.812,266.383 168.338,265.892 168.039 C 265.041 167.520,265.045 167.544,265.970 168.547 M357.982 178.544 C 362.921 183.525,367.052 187.600,367.162 187.600 C 367.452 187.600,349.873 169.829,349.400 169.645 C 349.180 169.559,353.042 173.563,357.982 178.544 M48.192 174.900 L 44.200 179.000 48.300 175.008 C 52.108 171.299,52.582 170.800,52.292 170.800 C 52.233 170.800,50.388 172.645,48.192 174.900 M218.194 177.241 C 215.557 179.904,213.760 181.845,214.200 181.554 C 215.068 180.979,223.479 172.400,223.174 172.400 C 223.071 172.400,220.830 174.579,218.194 177.241 M270.562 173.142 C 271.409 174.095,271.600 174.182,271.600 173.614 C 271.600 173.402,271.195 173.016,270.700 172.756 C 269.805 172.286,269.804 172.288,270.562 173.142 M272.800 175.102 C 272.800 175.322,273.070 175.726,273.400 176.000 C 273.735 176.278,274.000 176.321,274.000 176.098 C 274.000 175.878,273.730 175.474,273.400 175.200 C 273.065 174.922,272.800 174.879,272.800 175.102 M135.556 178.100 C 135.086 178.995,135.088 178.996,135.942 178.238 C 136.895 177.391,136.982 177.200,136.414 177.200 C 136.202 177.200,135.816 177.605,135.556 178.100 M275.200 177.800 C 275.474 178.130,275.878 178.400,276.098 178.400 C 276.321 178.400,276.278 178.135,276.000 177.800 C 275.726 177.470,275.322 177.200,275.102 177.200 C 274.879 177.200,274.922 177.465,275.200 177.800 M126.179 187.606 C 121.571 192.229,117.742 196.279,117.671 196.606 C 117.530 197.250,198.526 197.536,199.400 196.894 C 199.620 196.732,202.945 193.360,206.790 189.400 L 213.779 182.200 206.386 189.500 L 198.992 196.800 158.496 196.800 C 136.223 196.800,118.000 196.667,118.000 196.503 C 118.000 196.340,121.823 192.380,126.497 187.703 C 131.170 183.027,134.895 179.200,134.776 179.200 C 134.656 179.200,130.788 182.983,126.179 187.606 M277.200 179.586 C 277.200 179.798,277.605 180.184,278.100 180.444 C 278.995 180.914,278.996 180.912,278.238 180.058 C 277.391 179.105,277.200 179.018,277.200 179.586 M279.312 181.400 C 279.467 181.620,282.971 185.174,287.097 189.297 L 294.600 196.795 335.100 196.797 C 357.375 196.799,375.600 196.698,375.600 196.573 C 375.600 196.148,373.002 193.214,372.619 193.207 C 372.409 193.203,372.941 193.920,373.800 194.800 L 375.362 196.400 334.985 196.400 L 294.608 196.400 286.818 188.700 C 282.534 184.465,279.157 181.180,279.312 181.400 M115.594 189.100 L 110.600 194.200 115.700 189.206 C 120.437 184.567,120.981 184.000,120.694 184.000 C 120.636 184.000,118.341 186.295,115.594 189.100 M32.393 191.100 L 28.200 195.400 32.500 191.207 C 36.494 187.313,36.982 186.800,36.693 186.800 C 36.634 186.800,34.699 188.735,32.393 191.100 M367.600 188.125 C 367.600 188.194,368.185 188.779,368.900 189.425 L 370.200 190.600 369.025 189.300 C 367.930 188.088,367.600 187.816,367.600 188.125 M27.206 196.500 C 27.200 197.163,29.356 197.195,67.700 197.102 L 108.200 197.004 68.022 196.900 C 36.491 196.818,27.777 196.689,27.529 196.298 C 27.304 195.944,27.210 196.003,27.206 196.500 M47.730 203.900 C 58.912 203.959,77.092 203.959,88.130 203.900 C 99.169 203.841,90.020 203.792,67.800 203.792 C 45.580 203.792,36.549 203.841,47.730 203.900 M120.000 206.200 C 121.195 207.410,122.263 208.400,122.373 208.400 C 122.483 208.400,121.595 207.410,120.400 206.200 C 119.205 204.990,118.137 204.000,118.027 204.000 C 117.917 204.000,118.805 204.990,120.000 206.200 M211.400 206.000 C 212.483 207.100,213.447 208.000,213.541 208.000 C 213.880 208.000,210.191 204.080,209.815 204.041 C 209.603 204.018,210.317 204.900,211.400 206.000 M261.900 204.299 C 265.915 204.365,272.485 204.365,276.500 204.299 C 280.515 204.234,277.230 204.181,269.200 204.181 C 261.170 204.181,257.885 204.234,261.900 204.299 M111.000 207.200 C 112.083 208.300,113.060 209.200,113.170 209.200 C 113.280 209.200,112.483 208.300,111.400 207.200 C 110.317 206.100,109.340 205.200,109.230 205.200 C 109.120 205.200,109.917 206.100,111.000 207.200 M202.000 206.925 C 202.000 206.994,202.585 207.579,203.300 208.225 L 204.600 209.400 203.425 208.100 C 202.330 206.888,202.000 206.616,202.000 206.925 M34.000 211.400 C 36.081 213.490,37.874 215.200,37.984 215.200 C 38.094 215.200,36.481 213.490,34.400 211.400 C 32.319 209.310,30.526 207.600,30.416 207.600 C 30.306 207.600,31.919 209.310,34.000 211.400 M214.800 209.710 C 214.800 209.771,216.195 211.166,217.900 212.810 L 221.000 215.800 218.010 212.700 C 215.233 209.821,214.800 209.417,214.800 209.710 M367.900 210.282 C 368.395 210.378,369.205 210.378,369.700 210.282 C 370.195 210.187,369.790 210.109,368.800 210.109 C 367.810 210.109,367.405 210.187,367.900 210.282 M208.600 214.000 C 209.459 214.880,210.252 215.600,210.362 215.600 C 210.472 215.600,209.859 214.880,209.000 214.000 C 208.141 213.120,207.348 212.400,207.238 212.400 C 207.128 212.400,207.741 213.120,208.600 214.000 M289.775 213.700 L 288.600 215.000 289.900 213.825 C 291.112 212.730,291.384 212.400,291.075 212.400 C 291.006 212.400,290.421 212.985,289.775 213.700 M130.400 217.000 C 131.817 218.430,133.067 219.600,133.177 219.600 C 133.287 219.600,132.217 218.430,130.800 217.000 C 129.383 215.570,128.133 214.400,128.023 214.400 C 127.913 214.400,128.983 215.570,130.400 217.000 M119.800 216.400 C 120.659 217.280,121.452 218.000,121.562 218.000 C 121.672 218.000,121.059 217.280,120.200 216.400 C 119.341 215.520,118.548 214.800,118.438 214.800 C 118.328 214.800,118.941 215.520,119.800 216.400 M224.600 220.000 C 226.128 221.540,227.469 222.800,227.579 222.800 C 227.689 222.800,226.528 221.540,225.000 220.000 C 223.472 218.460,222.131 217.200,222.021 217.200 C 221.911 217.200,223.072 218.460,224.600 220.000 M213.583 219.300 C 214.564 220.345,215.419 221.200,215.483 221.200 C 215.784 221.200,215.466 220.841,213.700 219.183 L 211.800 217.400 213.583 219.300 M127.600 224.600 C 128.795 225.810,129.863 226.800,129.973 226.800 C 130.083 226.800,129.195 225.810,128.000 224.600 C 126.805 223.390,125.737 222.400,125.627 222.400 C 125.517 222.400,126.405 223.390,127.600 224.600 M255.197 233.100 L 245.800 242.600 255.300 233.203 C 260.525 228.035,264.800 223.760,264.800 223.703 C 264.800 223.420,263.929 224.272,255.197 233.100 M219.200 225.400 C 219.946 226.170,220.647 226.800,220.757 226.800 C 220.867 226.800,220.346 226.170,219.600 225.400 C 218.854 224.630,218.153 224.000,218.043 224.000 C 217.933 224.000,218.454 224.630,219.200 225.400 M141.600 228.600 C 143.017 230.030,144.267 231.200,144.377 231.200 C 144.487 231.200,143.417 230.030,142.000 228.600 C 140.583 227.170,139.333 226.000,139.223 226.000 C 139.113 226.000,140.183 227.170,141.600 228.600 M230.400 226.110 C 230.400 226.171,231.795 227.566,233.500 229.210 L 236.600 232.200 233.610 229.100 C 230.833 226.221,230.400 225.817,230.400 226.110 M53.400 231.200 C 56.033 233.840,58.277 236.000,58.387 236.000 C 58.497 236.000,56.433 233.840,53.800 231.200 C 51.167 228.560,48.923 226.400,48.813 226.400 C 48.703 226.400,50.767 228.560,53.400 231.200 M224.000 230.600 C 224.746 231.370,225.447 232.000,225.557 232.000 C 225.667 232.000,225.146 231.370,224.400 230.600 C 223.654 229.830,222.953 229.200,222.843 229.200 C 222.733 229.200,223.254 229.830,224.000 230.600 M135.400 232.800 C 136.259 233.680,137.052 234.400,137.162 234.400 C 137.272 234.400,136.659 233.680,135.800 232.800 C 134.941 231.920,134.148 231.200,134.038 231.200 C 133.928 231.200,134.541 231.920,135.400 232.800 M309.714 233.800 C 309.717 234.900,309.795 235.303,309.887 234.695 C 309.979 234.086,309.977 233.186,309.882 232.695 C 309.787 232.203,309.711 232.700,309.714 233.800 M237.600 233.710 C 237.600 233.771,238.995 235.166,240.700 236.810 L 243.800 239.800 240.810 236.700 C 238.033 233.821,237.600 233.417,237.600 233.710 M229.800 236.800 C 230.659 237.680,231.452 238.400,231.562 238.400 C 231.672 238.400,231.059 237.680,230.200 236.800 C 229.341 235.920,228.548 235.200,228.438 235.200 C 228.328 235.200,228.941 235.920,229.800 236.800 M152.200 239.600 C 154.171 241.580,155.873 243.200,155.983 243.200 C 156.093 243.200,154.571 241.580,152.600 239.600 C 150.629 237.620,148.927 236.000,148.817 236.000 C 148.707 236.000,150.229 237.620,152.200 239.600 M143.983 241.700 C 145.641 243.466,146.000 243.784,146.000 243.483 C 146.000 243.419,145.145 242.564,144.100 241.583 L 142.200 239.800 143.983 241.700 M234.600 242.000 C 235.459 242.880,236.252 243.600,236.362 243.600 C 236.472 243.600,235.859 242.880,235.000 242.000 C 234.141 241.120,233.348 240.400,233.238 240.400 C 233.128 240.400,233.741 241.120,234.600 242.000 M295.491 245.089 C 296.201 245.177,297.461 245.179,298.291 245.092 C 299.121 245.005,298.540 244.933,297.000 244.931 C 295.460 244.929,294.781 245.000,295.491 245.089 M72.000 250.200 C 74.523 252.730,76.677 254.800,76.787 254.800 C 76.897 254.800,74.923 252.730,72.400 250.200 C 69.877 247.670,67.723 245.600,67.613 245.600 C 67.503 245.600,69.477 247.670,72.000 250.200 M162.600 250.400 C 163.906 251.720,165.065 252.800,165.175 252.800 C 165.285 252.800,164.306 251.720,163.000 250.400 C 161.694 249.080,160.535 248.000,160.425 248.000 C 160.315 248.000,161.294 249.080,162.600 250.400 M152.800 251.000 C 153.995 252.210,155.063 253.200,155.173 253.200 C 155.283 253.200,154.395 252.210,153.200 251.000 C 152.005 249.790,150.937 248.800,150.827 248.800 C 150.717 248.800,151.605 249.790,152.800 251.000 M233.594 253.900 L 228.600 259.000 233.700 254.006 C 238.437 249.367,238.981 248.800,238.694 248.800 C 238.636 248.800,236.341 251.095,233.594 253.900 M161.800 260.400 C 162.883 261.500,163.860 262.400,163.970 262.400 C 164.080 262.400,163.283 261.500,162.200 260.400 C 161.117 259.300,160.140 258.400,160.030 258.400 C 159.920 258.400,160.717 259.300,161.800 260.400 M174.000 262.200 C 175.417 263.630,176.667 264.800,176.777 264.800 C 176.887 264.800,175.817 263.630,174.400 262.200 C 172.983 260.770,171.733 259.600,171.623 259.600 C 171.513 259.600,172.583 260.770,174.000 262.200 M169.600 268.600 C 170.795 269.810,171.863 270.800,171.973 270.800 C 172.083 270.800,171.195 269.810,170.000 268.600 C 168.805 267.390,167.737 266.400,167.627 266.400 C 167.517 266.400,168.405 267.390,169.600 268.600 M93.193 271.700 C 95.499 274.065,97.434 276.000,97.493 276.000 C 97.782 276.000,97.294 275.487,93.300 271.593 L 89.000 267.400 93.193 271.700 M211.595 275.500 L 205.800 281.400 211.700 275.605 C 217.181 270.222,217.781 269.600,217.495 269.600 C 217.437 269.600,214.782 272.255,211.595 275.500 M186.600 275.200 C 188.128 276.740,189.469 278.000,189.579 278.000 C 189.689 278.000,188.528 276.740,187.000 275.200 C 185.472 273.660,184.131 272.400,184.021 272.400 C 183.911 272.400,185.072 273.660,186.600 275.200 M178.600 278.000 C 179.906 279.320,181.065 280.400,181.175 280.400 C 181.285 280.400,180.306 279.320,179.000 278.000 C 177.694 276.680,176.535 275.600,176.425 275.600 C 176.315 275.600,177.294 276.680,178.600 278.000 M185.600 285.400 C 186.795 286.610,187.863 287.600,187.973 287.600 C 188.083 287.600,187.195 286.610,186.000 285.400 C 184.805 284.190,183.737 283.200,183.627 283.200 C 183.517 283.200,184.405 284.190,185.600 285.400 M196.783 285.700 C 198.441 287.466,198.800 287.784,198.800 287.483 C 198.800 287.419,197.945 286.564,196.900 285.583 L 195.000 283.800 196.783 285.700 M113.000 292.000 C 114.971 293.980,116.673 295.600,116.783 295.600 C 116.893 295.600,115.371 293.980,113.400 292.000 C 111.429 290.020,109.727 288.400,109.617 288.400 C 109.507 288.400,111.029 290.020,113.000 292.000 M134.000 313.400 C 136.081 315.490,137.874 317.200,137.984 317.200 C 138.094 317.200,136.481 315.490,134.400 313.400 C 132.319 311.310,130.526 309.600,130.416 309.600 C 130.306 309.600,131.919 311.310,134.000 313.400 " stroke="none" fill="#98ccb8" fill-rule="evenodd"></path><path id="path4" d="M143.385 77.300 L 141.400 79.400 143.500 77.415 C 145.451 75.571,145.783 75.200,145.485 75.200 C 145.422 75.200,144.477 76.145,143.385 77.300 M128.378 92.700 L 127.000 94.200 128.500 92.822 C 129.325 92.063,130.000 91.388,130.000 91.322 C 130.000 91.016,129.662 91.304,128.378 92.700 M279.200 100.600 C 280.617 102.030,281.867 103.200,281.977 103.200 C 282.087 103.200,281.017 102.030,279.600 100.600 C 278.183 99.170,276.933 98.000,276.823 98.000 C 276.713 98.000,277.783 99.170,279.200 100.600 M279.400 115.200 C 276.106 118.500,273.500 121.200,273.610 121.200 C 273.720 121.200,276.506 118.500,279.800 115.200 C 283.094 111.900,285.700 109.200,285.590 109.200 C 285.480 109.200,282.694 111.900,279.400 115.200 M99.787 122.100 L 97.400 124.600 99.900 122.213 C 102.222 119.995,102.583 119.600,102.287 119.600 C 102.226 119.600,101.101 120.725,99.787 122.100 M179.781 123.300 L 178.200 125.000 179.900 123.419 C 181.481 121.948,181.784 121.600,181.481 121.600 C 181.416 121.600,180.651 122.365,179.781 123.300 M85.200 137.000 C 84.228 137.990,83.523 138.800,83.633 138.800 C 83.743 138.800,84.628 137.990,85.600 137.000 C 86.572 136.010,87.277 135.200,87.167 135.200 C 87.057 135.200,86.172 136.010,85.200 137.000 M161.781 141.700 L 160.200 143.400 161.900 141.819 C 163.481 140.348,163.784 140.000,163.481 140.000 C 163.416 140.000,162.651 140.765,161.781 141.700 M69.600 153.000 C 68.628 153.990,67.923 154.800,68.033 154.800 C 68.143 154.800,69.028 153.990,70.000 153.000 C 70.972 152.010,71.677 151.200,71.567 151.200 C 71.457 151.200,70.572 152.010,69.600 153.000 M145.600 158.200 C 144.628 159.190,143.923 160.000,144.033 160.000 C 144.143 160.000,145.028 159.190,146.000 158.200 C 146.972 157.210,147.677 156.400,147.567 156.400 C 147.457 156.400,146.572 157.210,145.600 158.200 M53.781 169.300 L 52.200 171.000 53.900 169.419 C 55.481 167.948,55.784 167.600,55.481 167.600 C 55.416 167.600,54.651 168.365,53.781 169.300 M126.981 177.300 L 125.400 179.000 127.100 177.419 C 128.681 175.948,128.984 175.600,128.681 175.600 C 128.616 175.600,127.851 176.365,126.981 177.300 M37.978 185.500 L 36.600 187.000 38.100 185.622 C 39.496 184.338,39.784 184.000,39.478 184.000 C 39.412 184.000,38.737 184.675,37.978 185.500 M109.178 195.500 L 107.800 197.000 109.300 195.622 C 110.125 194.863,110.800 194.188,110.800 194.122 C 110.800 193.816,110.462 194.104,109.178 195.500 M28.400 205.400 C 29.146 206.170,29.847 206.800,29.957 206.800 C 30.067 206.800,29.546 206.170,28.800 205.400 C 28.054 204.630,27.353 204.000,27.243 204.000 C 27.133 204.000,27.654 204.630,28.400 205.400 M200.400 205.400 C 201.146 206.170,201.847 206.800,201.957 206.800 C 202.067 206.800,201.546 206.170,200.800 205.400 C 200.054 204.630,199.353 204.000,199.243 204.000 C 199.133 204.000,199.654 204.630,200.400 205.400 M221.528 204.300 C 227.759 204.362,237.839 204.362,243.928 204.300 C 250.018 204.238,244.920 204.187,232.600 204.187 C 220.280 204.187,215.298 204.238,221.528 204.300 M113.800 210.400 C 115.328 211.940,116.669 213.200,116.779 213.200 C 116.889 213.200,115.728 211.940,114.200 210.400 C 112.672 208.860,111.331 207.600,111.221 207.600 C 111.111 207.600,112.272 208.860,113.800 210.400 M204.600 210.000 C 205.906 211.320,207.065 212.400,207.175 212.400 C 207.285 212.400,206.306 211.320,205.000 210.000 C 203.694 208.680,202.535 207.600,202.425 207.600 C 202.315 207.600,203.294 208.680,204.600 210.000 M213.600 208.125 C 213.600 208.194,214.185 208.779,214.900 209.425 L 216.200 210.600 215.025 209.300 C 213.930 208.088,213.600 207.816,213.600 208.125 M124.800 211.000 C 126.217 212.430,127.467 213.600,127.577 213.600 C 127.687 213.600,126.617 212.430,125.200 211.000 C 123.783 209.570,122.533 208.400,122.423 208.400 C 122.313 208.400,123.383 209.570,124.800 211.000 M367.511 210.693 C 368.451 210.778,369.891 210.777,370.711 210.691 C 371.530 210.605,370.760 210.536,369.000 210.537 C 367.240 210.539,366.570 210.609,367.511 210.693 M314.193 227.600 L 314.200 243.800 318.500 243.914 C 320.865 243.976,322.800 243.886,322.801 243.714 C 322.801 243.541,320.913 243.457,318.605 243.526 L 314.409 243.651 314.298 227.526 L 314.187 211.400 314.193 227.600 M337.999 221.081 C 337.890 226.625,337.938 231.023,338.107 230.853 C 338.276 230.684,338.366 226.148,338.307 220.773 L 338.199 211.000 337.999 221.081 M360.700 212.229 C 359.149 213.070,359.325 213.361,360.900 212.559 C 362.408 211.793,362.675 211.594,362.167 211.616 C 361.965 211.625,361.305 211.901,360.700 212.229 M273.381 214.500 L 271.800 216.200 273.500 214.619 C 274.435 213.749,275.200 212.984,275.200 212.919 C 275.200 212.616,274.852 212.919,273.381 214.500 M209.600 215.400 C 210.795 216.610,211.863 217.600,211.973 217.600 C 212.083 217.600,211.195 216.610,210.000 215.400 C 208.805 214.190,207.737 213.200,207.627 213.200 C 207.517 213.200,208.405 214.190,209.600 215.400 M356.175 215.700 L 355.000 217.000 356.300 215.825 C 357.015 215.179,357.600 214.594,357.600 214.525 C 357.600 214.216,357.270 214.488,356.175 215.700 M220.800 215.725 C 220.800 215.794,221.385 216.379,222.100 217.025 L 223.400 218.200 222.225 216.900 C 221.130 215.688,220.800 215.416,220.800 215.725 M119.600 216.510 C 119.600 216.571,120.995 217.966,122.700 219.610 L 125.800 222.600 122.810 219.500 C 120.033 216.621,119.600 216.217,119.600 216.510 M44.794 222.100 C 49.806 227.209,50.400 227.781,50.400 227.494 C 50.400 227.436,47.925 224.961,44.900 221.994 L 39.400 216.600 44.794 222.100 M298.700 217.482 C 299.195 217.578,300.005 217.578,300.500 217.482 C 300.995 217.387,300.590 217.309,299.600 217.309 C 298.610 217.309,298.205 217.387,298.700 217.482 M214.783 220.900 C 215.764 221.945,216.619 222.800,216.683 222.800 C 216.984 222.800,216.666 222.441,214.900 220.783 L 213.000 219.000 214.783 220.900 M286.924 221.400 C 286.926 222.720,287.001 223.212,287.090 222.493 C 287.179 221.774,287.177 220.694,287.086 220.093 C 286.995 219.492,286.922 220.080,286.924 221.400 M374.888 220.613 C 375.486 221.243,376.047 221.677,376.135 221.579 C 376.223 221.480,375.733 220.965,375.047 220.434 L 373.800 219.469 374.888 220.613 M137.400 224.000 C 139.371 225.980,141.073 227.600,141.183 227.600 C 141.293 227.600,139.771 225.980,137.800 224.000 C 135.829 222.020,134.127 220.400,134.017 220.400 C 133.907 220.400,135.429 222.020,137.400 224.000 M323.591 225.188 C 324.057 225.841,324.642 226.502,324.891 226.656 C 325.141 226.811,324.841 226.276,324.225 225.468 C 322.888 223.715,322.384 223.492,323.591 225.188 M131.000 228.400 C 132.528 229.940,133.869 231.200,133.979 231.200 C 134.089 231.200,132.928 229.940,131.400 228.400 C 129.872 226.860,128.531 225.600,128.421 225.600 C 128.311 225.600,129.472 226.860,131.000 228.400 M220.783 227.300 C 221.764 228.345,222.619 229.200,222.683 229.200 C 222.984 229.200,222.666 228.841,220.900 227.183 L 219.000 225.400 220.783 227.300 M351.314 227.400 C 351.317 228.500,351.395 228.903,351.487 228.295 C 351.579 227.686,351.577 226.786,351.482 226.295 C 351.387 225.803,351.311 226.300,351.314 227.400 M360.101 227.400 C 360.105 228.280,360.187 228.593,360.283 228.095 C 360.379 227.598,360.375 226.878,360.275 226.495 C 360.175 226.113,360.096 226.520,360.101 227.400 M226.000 233.000 C 227.195 234.210,228.263 235.200,228.373 235.200 C 228.483 235.200,227.595 234.210,226.400 233.000 C 225.205 231.790,224.137 230.800,224.027 230.800 C 223.917 230.800,224.805 231.790,226.000 233.000 M148.200 235.200 C 150.392 237.400,152.275 239.200,152.385 239.200 C 152.495 239.200,150.792 237.400,148.600 235.200 C 146.408 233.000,144.525 231.200,144.415 231.200 C 144.305 231.200,146.008 233.000,148.200 235.200 M298.600 231.668 C 299.040 231.912,299.679 232.312,300.020 232.556 C 300.360 232.800,300.215 232.595,299.697 232.100 C 299.179 231.605,298.540 231.205,298.278 231.212 C 298.015 231.219,298.160 231.424,298.600 231.668 M236.400 232.125 C 236.400 232.194,236.985 232.779,237.700 233.425 L 239.000 234.600 237.825 233.300 C 236.730 232.088,236.400 231.816,236.400 232.125 M361.514 232.600 C 361.741 233.040,362.438 233.849,363.063 234.399 L 364.200 235.397 363.003 233.999 C 361.107 231.782,361.080 231.758,361.514 232.600 M300.752 234.713 C 300.621 235.507,300.679 235.881,300.901 235.659 C 301.103 235.457,301.201 234.867,301.119 234.346 C 300.993 233.545,300.937 233.602,300.752 234.713 M375.362 234.062 C 375.188 234.343,375.252 234.415,375.525 234.246 C 375.844 234.049,376.011 235.277,376.101 238.485 L 376.229 243.000 376.314 238.300 C 376.394 233.945,376.138 232.806,375.362 234.062 M288.634 235.457 C 288.427 235.994,288.487 236.025,288.965 235.629 C 289.405 235.264,289.776 235.255,290.474 235.594 C 291.358 236.024,291.365 236.016,290.624 235.422 C 289.624 234.621,288.950 234.633,288.634 235.457 M139.800 237.600 C 141.106 238.920,142.265 240.000,142.375 240.000 C 142.485 240.000,141.506 238.920,140.200 237.600 C 138.894 236.280,137.735 235.200,137.625 235.200 C 137.515 235.200,138.494 236.280,139.800 237.600 M367.700 236.676 C 368.085 236.776,368.715 236.776,369.100 236.676 C 369.485 236.575,369.170 236.493,368.400 236.493 C 367.630 236.493,367.315 236.575,367.700 236.676 M66.400 244.200 C 70.025 247.830,73.081 250.800,73.191 250.800 C 73.301 250.800,70.425 247.830,66.800 244.200 C 63.175 240.570,60.119 237.600,60.009 237.600 C 59.899 237.600,62.775 240.570,66.400 244.200 M231.600 239.000 C 232.346 239.770,233.047 240.400,233.157 240.400 C 233.267 240.400,232.746 239.770,232.000 239.000 C 231.254 238.230,230.553 237.600,230.443 237.600 C 230.333 237.600,230.854 238.230,231.600 239.000 M355.600 238.925 C 355.600 238.994,356.185 239.579,356.900 240.225 L 358.200 241.400 357.025 240.100 C 355.930 238.888,355.600 238.616,355.600 238.925 M147.400 245.600 C 149.150 247.360,150.671 248.800,150.781 248.800 C 150.891 248.800,149.550 247.360,147.800 245.600 C 146.050 243.840,144.529 242.400,144.419 242.400 C 144.309 242.400,145.650 243.840,147.400 245.600 M237.000 244.800 C 238.306 246.120,239.465 247.200,239.575 247.200 C 239.685 247.200,238.706 246.120,237.400 244.800 C 236.094 243.480,234.935 242.400,234.825 242.400 C 234.715 242.400,235.694 243.480,237.000 244.800 M159.993 247.300 C 162.299 249.665,164.234 251.600,164.293 251.600 C 164.582 251.600,164.094 251.087,160.100 247.193 L 155.800 243.000 159.993 247.300 M337.953 243.714 C 338.126 243.887,340.233 243.976,342.634 243.912 L 347.000 243.796 342.318 243.598 C 339.744 243.489,337.779 243.541,337.953 243.714 M368.100 244.687 C 368.705 244.778,369.695 244.778,370.300 244.687 C 370.905 244.595,370.410 244.520,369.200 244.520 C 367.990 244.520,367.495 244.595,368.100 244.687 M228.796 258.300 L 221.800 265.400 228.900 258.404 C 232.805 254.557,236.000 251.362,236.000 251.304 C 236.000 251.019,235.295 251.704,228.796 258.300 M156.000 254.600 C 157.417 256.030,158.667 257.200,158.777 257.200 C 158.887 257.200,157.817 256.030,156.400 254.600 C 154.983 253.170,153.733 252.000,153.623 252.000 C 153.513 252.000,154.583 253.170,156.000 254.600 M171.600 259.400 C 174.123 261.930,176.277 264.000,176.387 264.000 C 176.497 264.000,174.523 261.930,172.000 259.400 C 169.477 256.870,167.323 254.800,167.213 254.800 C 167.103 254.800,169.077 256.870,171.600 259.400 M85.600 263.800 C 89.445 267.650,92.681 270.800,92.791 270.800 C 92.901 270.800,89.845 267.650,86.000 263.800 C 82.155 259.950,78.919 256.800,78.809 256.800 C 78.699 256.800,81.755 259.950,85.600 263.800 M164.600 263.600 C 166.128 265.140,167.469 266.400,167.579 266.400 C 167.689 266.400,166.528 265.140,165.000 263.600 C 163.472 262.060,162.131 260.800,162.021 260.800 C 161.911 260.800,163.072 262.060,164.600 263.600 M182.000 270.200 C 184.081 272.290,185.874 274.000,185.984 274.000 C 186.094 274.000,184.481 272.290,182.400 270.200 C 180.319 268.110,178.526 266.400,178.416 266.400 C 178.306 266.400,179.919 268.110,182.000 270.200 M173.000 272.400 C 174.750 274.160,176.271 275.600,176.381 275.600 C 176.491 275.600,175.150 274.160,173.400 272.400 C 171.650 270.640,170.129 269.200,170.019 269.200 C 169.909 269.200,171.250 270.640,173.000 272.400 M205.525 281.071 C 199.821 286.776,199.188 287.293,198.527 286.793 C 197.830 286.267,197.829 286.276,198.506 287.014 C 199.194 287.764,199.382 287.615,205.705 281.292 C 209.275 277.721,212.107 274.800,211.997 274.800 C 211.887 274.800,208.975 277.622,205.525 281.071 M104.000 282.600 C 106.743 285.350,109.078 287.600,109.188 287.600 C 109.298 287.600,107.143 285.350,104.400 282.600 C 101.657 279.850,99.322 277.600,99.212 277.600 C 99.102 277.600,101.257 279.850,104.000 282.600 M192.200 280.800 C 193.728 282.340,195.069 283.600,195.179 283.600 C 195.289 283.600,194.128 282.340,192.600 280.800 C 191.072 279.260,189.731 278.000,189.621 278.000 C 189.511 278.000,190.672 279.260,192.200 280.800 M181.200 281.000 C 182.395 282.210,183.463 283.200,183.573 283.200 C 183.683 283.200,182.795 282.210,181.600 281.000 C 180.405 279.790,179.337 278.800,179.227 278.800 C 179.117 278.800,180.005 279.790,181.200 281.000 M189.983 290.100 C 191.641 291.866,192.000 292.184,192.000 291.883 C 192.000 291.819,191.145 290.964,190.100 289.983 L 188.200 288.200 189.983 290.100 M123.800 302.800 C 127.094 306.100,129.880 308.800,129.990 308.800 C 130.100 308.800,127.494 306.100,124.200 302.800 C 120.906 299.500,118.120 296.800,118.010 296.800 C 117.900 296.800,120.506 299.500,123.800 302.800 M143.800 323.200 C 146.212 325.620,148.276 327.600,148.386 327.600 C 148.496 327.600,146.612 325.620,144.200 323.200 C 141.788 320.780,139.724 318.800,139.614 318.800 C 139.504 318.800,141.388 320.780,143.800 323.200 " stroke="none" fill="#87a2c2" fill-rule="evenodd"></path></g></svg>